solid OpenSCAD_Model
  facet normal 1 -2.22045e-016 2.99782e-016
    outer loop
      vertex 7.325 2.875 16.85
      vertex 7.325 2.925 16.85
      vertex 7.325 -5.925 16.85
    endloop
  endfacet
  facet normal 1 -2.22045e-016 2.99782e-016
    outer loop
      vertex 7.325 -2.875 15.35
      vertex 7.325 2.925 15.35
      vertex 7.325 2.875 15.5871
    endloop
  endfacet
  facet normal 1 -2.22045e-016 2.99782e-016
    outer loop
      vertex 7.325 -3.925 13.85
      vertex 7.325 -3.875 15.35
      vertex 7.325 -5.925 15.85
    endloop
  endfacet
  facet normal 1 -2.22045e-016 2.99782e-016
    outer loop
      vertex 7.325 2.925 15.35
      vertex 7.325 2.925 15.6778
      vertex 7.325 2.875 15.5871
    endloop
  endfacet
  facet normal 1 -2.22045e-016 2.99782e-016
    outer loop
      vertex 7.325 2.875 15.5871
      vertex 7.325 -3.875 15.35
      vertex 7.325 -2.875 15.35
    endloop
  endfacet
  facet normal 1 -2.22045e-016 2.99782e-016
    outer loop
      vertex 7.325 -3.875 13.85
      vertex 7.325 -3.875 15.35
      vertex 7.325 -3.925 13.85
    endloop
  endfacet
  facet normal 1 -2.22045e-016 2.99782e-016
    outer loop
      vertex 7.325 2.875 15.5871
      vertex 7.325 -5.925 15.85
      vertex 7.325 -3.875 15.35
    endloop
  endfacet
  facet normal 1 -2.22045e-016 2.99782e-016
    outer loop
      vertex 7.325 2.875 15.5871
      vertex 7.325 -5.925 16.85
      vertex 7.325 -5.925 15.85
    endloop
  endfacet
  facet normal 1 -2.22045e-016 2.99782e-016
    outer loop
      vertex 7.325 2.875 15.5871
      vertex 7.325 2.875 16.85
      vertex 7.325 -5.925 16.85
    endloop
  endfacet
  facet normal -3.44505e-016 -2.22045e-016 1
    outer loop
      vertex -7.16211 2.875 16.85
      vertex 7.325 2.925 16.85
      vertex -7.25277 2.925 16.85
    endloop
  endfacet
  facet normal -3.44505e-016 -2.22045e-016 1
    outer loop
      vertex 7.325 -5.925 16.85
      vertex 7.325 2.925 16.85
      vertex -7.16211 2.875 16.85
    endloop
  endfacet
  facet normal -3.44505e-016 -2.22045e-016 1
    outer loop
      vertex -7.325 -5.925 16.85
      vertex 7.325 -5.925 16.85
      vertex -7.325 2.875 16.85
    endloop
  endfacet
  facet normal -3.44505e-016 -2.22045e-016 1
    outer loop
      vertex -7.325 -5.925 16.85
      vertex -7.325 2.875 16.85
      vertex -7.325 2.925 16.85
    endloop
  endfacet
  facet normal -3.44505e-016 -2.22045e-016 1
    outer loop
      vertex -7.16211 2.875 16.85
      vertex -7.325 2.875 16.85
      vertex 7.325 -5.925 16.85
    endloop
  endfacet
  facet normal -2.22045e-016 0 1
    outer loop
      vertex -7.25277 2.925 16.85
      vertex -7.325 2.875 16.85
      vertex -7.16211 2.875 16.85
    endloop
  endfacet
  facet normal -2.22045e-016 0 1
    outer loop
      vertex -7.325 4.875 16.85
      vertex -7.325 2.875 16.85
      vertex -7.25277 2.925 16.85
    endloop
  endfacet
  facet normal -2.22045e-016 0 1
    outer loop
      vertex 5.825 4.375 16.85
      vertex 5.825 4.875 16.85
      vertex -7.325 4.875 16.85
    endloop
  endfacet
  facet normal -2.22045e-016 0 1
    outer loop
      vertex 5.825 4.375 16.85
      vertex -7.325 4.875 16.85
      vertex 7.325 2.925 16.85
    endloop
  endfacet
  facet normal -2.22045e-016 0 1
    outer loop
      vertex 7.325 4.375 16.85
      vertex 7.325 2.925 16.85
      vertex 7.325 2.875 16.85
    endloop
  endfacet
  facet normal -2.22045e-016 0 1
    outer loop
      vertex 7.325 4.375 16.85
      vertex 5.825 4.375 16.85
      vertex 7.325 2.925 16.85
    endloop
  endfacet
  facet normal -2.22045e-016 0 1
    outer loop
      vertex -7.25277 2.925 16.85
      vertex 7.325 2.925 16.85
      vertex -7.325 4.875 16.85
    endloop
  endfacet
  facet normal 1 0 1.77321e-016
    outer loop
      vertex 7.325 2.925 15.6778
      vertex 7.325 2.875 16.85
      vertex 7.325 2.875 15.5871
    endloop
  endfacet
  facet normal 1 0 1.77321e-016
    outer loop
      vertex 7.325 4.375 16.85
      vertex 7.325 2.875 16.85
      vertex 7.325 2.925 15.6778
    endloop
  endfacet
  facet normal 1 0 1.77321e-016
    outer loop
      vertex 7.325 4.875 5.17919e-015
      vertex 7.325 4.375 5.17919e-015
      vertex 7.325 4.875 3.40283e-015
    endloop
  endfacet
  facet normal 1 0 1.77321e-016
    outer loop
      vertex 7.325 2.875 3.40283e-015
      vertex 7.325 4.375 16.85
      vertex 7.325 2.925 15.35
    endloop
  endfacet
  facet normal 1 0 1.77321e-016
    outer loop
      vertex 7.325 2.875 3.40283e-015
      vertex 7.325 2.925 15.35
      vertex 7.325 2.875 15.35
    endloop
  endfacet
  facet normal 1 0 1.77321e-016
    outer loop
      vertex 7.325 4.375 5.17919e-015
      vertex 7.325 4.375 16.85
      vertex 7.325 2.875 3.40283e-015
    endloop
  endfacet
  facet normal 1 0 1.77321e-016
    outer loop
      vertex 7.325 4.875 3.40283e-015
      vertex 7.325 4.375 5.17919e-015
      vertex 7.325 2.875 3.40283e-015
    endloop
  endfacet
  facet normal 1 0 1.77321e-016
    outer loop
      vertex 7.325 2.925 15.6778
      vertex 7.325 2.925 15.35
      vertex 7.325 4.375 16.85
    endloop
  endfacet
  facet normal 3.44505e-016 2.22045e-016 -1
    outer loop
      vertex -7.325 -2.875 15.35
      vertex -7.325 -2.925 15.35
      vertex -7.325 2.875 15.35
    endloop
  endfacet
  facet normal 3.44505e-016 2.22045e-016 -1
    outer loop
      vertex 7.325 2.925 15.35
      vertex 7.325 -2.875 15.35
      vertex 7.325 2.875 15.35
    endloop
  endfacet
  facet normal 3.44505e-016 2.22045e-016 -1
    outer loop
      vertex 7.325 2.875 15.35
      vertex 7.325 -2.875 15.35
      vertex -7.325 -2.875 15.35
    endloop
  endfacet
  facet normal 3.44505e-016 2.22045e-016 -1
    outer loop
      vertex 7.325 2.875 15.35
      vertex -7.325 -2.875 15.35
      vertex -7.325 2.875 15.35
    endloop
  endfacet
  facet normal 0 1 0
    outer loop
      vertex 7.325 -2.875 15.35
      vertex 7.325 -2.875 1.5
      vertex -7.325 -2.875 1.5
    endloop
  endfacet
  facet normal 0 1 0
    outer loop
      vertex 7.325 -2.875 15.35
      vertex -7.325 -2.875 1.5
      vertex -7.325 -2.875 15.35
    endloop
  endfacet
  facet normal 0 -1 0
    outer loop
      vertex 7.325 -3.875 3
      vertex 7.325 -3.875 15.35
      vertex 7.325 -3.875 13.85
    endloop
  endfacet
  facet normal 0 -1 0
    outer loop
      vertex -7.325 -3.875 3
      vertex 7.325 -3.875 3
      vertex 7.325 -3.875 13.85
    endloop
  endfacet
  facet normal 0 -1 0
    outer loop
      vertex -7.325 -3.875 13.85
      vertex -7.325 -3.875 3
      vertex 7.325 -3.875 13.85
    endloop
  endfacet
  facet normal 0 -1 0
    outer loop
      vertex -7.325 -3.875 13.85
      vertex -7.325 -3.875 1.5
      vertex -7.325 -3.875 3
    endloop
  endfacet
  facet normal 3.44505e-016 2.22045e-016 -1
    outer loop
      vertex 7.325 -3.875 13.85
      vertex 7.325 -3.925 13.85
      vertex -7.325 -3.875 13.85
    endloop
  endfacet
  facet normal 3.44505e-016 2.22045e-016 -1
    outer loop
      vertex -7.325 -3.875 13.85
      vertex 7.325 -3.925 13.85
      vertex -7.325 -3.925 13.85
    endloop
  endfacet
  facet normal 3.44505e-016 2.22045e-016 -1
    outer loop
      vertex -7.325 -3.875 13.85
      vertex -7.325 -3.925 13.85
      vertex -7.325 -2.925 13.85
    endloop
  endfacet
  facet normal 8.65927e-017 -0.707107 -0.707107
    outer loop
      vertex -7.325 -3.925 13.85
      vertex 7.325 -3.925 13.85
      vertex -7.325 -5.925 15.85
    endloop
  endfacet
  facet normal 8.65927e-017 -0.707107 -0.707107
    outer loop
      vertex -7.325 -5.925 15.85
      vertex 7.325 -3.925 13.85
      vertex 7.325 -5.925 15.85
    endloop
  endfacet
  facet normal -2.22045e-016 -1 -2.22045e-016
    outer loop
      vertex 7.325 -5.925 15.85
      vertex 7.325 -5.925 16.85
      vertex -7.325 -5.925 16.85
    endloop
  endfacet
  facet normal -2.22045e-016 -1 -2.22045e-016
    outer loop
      vertex -7.325 -5.925 15.85
      vertex 7.325 -5.925 15.85
      vertex -7.325 -5.925 16.85
    endloop
  endfacet
  facet normal -1 2.22045e-016 -2.99782e-016
    outer loop
      vertex -7.325 2.925 16.85
      vertex -7.325 2.925 15.6778
      vertex -7.325 -5.925 16.85
    endloop
  endfacet
  facet normal -1 2.22045e-016 -2.99782e-016
    outer loop
      vertex -7.325 -5.925 16.85
      vertex -7.325 2.925 15.6778
      vertex -7.325 2.875 15.5871
    endloop
  endfacet
  facet normal -1 2.22045e-016 -2.99782e-016
    outer loop
      vertex -7.325 -5.925 16.85
      vertex -7.325 2.875 15.5871
      vertex -7.325 2.875 15.35
    endloop
  endfacet
  facet normal -1 2.22045e-016 -2.99782e-016
    outer loop
      vertex -7.325 -5.925 16.85
      vertex -7.325 2.875 15.35
      vertex -7.325 -2.925 15.35
    endloop
  endfacet
  facet normal -1 2.22045e-016 -2.99782e-016
    outer loop
      vertex -7.325 -5.925 16.85
      vertex -7.325 -2.925 15.35
      vertex -7.325 -2.925 13.85
    endloop
  endfacet
  facet normal -1 2.22045e-016 -2.99782e-016
    outer loop
      vertex -7.325 -5.925 16.85
      vertex -7.325 -2.925 13.85
      vertex -7.325 -3.925 13.85
    endloop
  endfacet
  facet normal -1 2.22045e-016 -2.99782e-016
    outer loop
      vertex -7.325 -5.925 16.85
      vertex -7.325 -3.925 13.85
      vertex -7.325 -5.925 15.85
    endloop
  endfacet
  facet normal -1 0 -1.77321e-016
    outer loop
      vertex -7.325 4.375 1.17223
      vertex -7.325 4.875 0.265637
      vertex -7.325 4.875 1.4988e-016
    endloop
  endfacet
  facet normal -1 0 -1.77321e-016
    outer loop
      vertex -7.325 4.375 1.17223
      vertex -7.325 4.875 1.4988e-016
      vertex -7.325 2.925 1.4988e-016
    endloop
  endfacet
  facet normal -1 0 -1.77321e-016
    outer loop
      vertex -7.325 2.925 16.85
      vertex -7.325 4.375 16.85
      vertex -7.325 4.375 1.17223
    endloop
  endfacet
  facet normal -1 0 -1.77321e-016
    outer loop
      vertex -7.325 4.375 1.17223
      vertex -7.325 2.925 1.4988e-016
      vertex -7.325 2.925 1.5
    endloop
  endfacet
  facet normal -1 0 -1.77321e-016
    outer loop
      vertex -7.325 2.925 15.6778
      vertex -7.325 2.925 1.5
      vertex -7.325 2.875 15.5871
    endloop
  endfacet
  facet normal -1 0 -1.77321e-016
    outer loop
      vertex -7.325 4.375 1.17223
      vertex -7.325 2.925 1.5
      vertex -7.325 2.925 15.6778
    endloop
  endfacet
  facet normal -1 0 -1.77321e-016
    outer loop
      vertex -7.325 2.875 16.85
      vertex -7.325 4.875 16.85
      vertex -7.325 2.925 16.85
    endloop
  endfacet
  facet normal -1 0 -1.77321e-016
    outer loop
      vertex -7.325 2.925 16.85
      vertex -7.325 4.875 16.85
      vertex -7.325 4.375 16.85
    endloop
  endfacet
  facet normal -1 0 -1.77321e-016
    outer loop
      vertex -7.325 2.875 1.5
      vertex -7.325 2.875 15.5871
      vertex -7.325 2.925 1.5
    endloop
  endfacet
  facet normal -1 0 -1.77321e-016
    outer loop
      vertex -7.325 2.925 16.85
      vertex -7.325 4.375 1.17223
      vertex -7.325 2.925 15.6778
    endloop
  endfacet
  facet normal 0 1 0
    outer loop
      vertex -5.825 4.875 16.85
      vertex 5.825 4.875 16.85
      vertex 5.825 4.875 4.84612e-015
    endloop
  endfacet
  facet normal 0 1 0
    outer loop
      vertex 5.825 4.875 4.84612e-015
      vertex 7.325 4.875 5.17919e-015
      vertex 7.325 4.875 3.40283e-015
    endloop
  endfacet
  facet normal 0 1 0
    outer loop
      vertex 5.825 4.875 4.84612e-015
      vertex 7.325 4.875 3.40283e-015
      vertex -5.825 4.875 4.82947e-016
    endloop
  endfacet
  facet normal 0 1 0
    outer loop
      vertex -7.325 4.875 16.85
      vertex 5.825 4.875 16.85
      vertex -5.825 4.875 16.85
    endloop
  endfacet
  facet normal 0 1 0
    outer loop
      vertex -5.825 4.875 16.85
      vertex 5.825 4.875 4.84612e-015
      vertex -5.825 4.875 4.82947e-016
    endloop
  endfacet
  facet normal -1 2.22045e-016 -1.77321e-016
    outer loop
      vertex 5.825 4.875 16.85
      vertex 5.825 8.175 16.85
      vertex 5.825 8.175 4.84612e-015
    endloop
  endfacet
  facet normal -1 2.22045e-016 -1.77321e-016
    outer loop
      vertex 5.825 4.375 16.85
      vertex 5.825 8.175 16.85
      vertex 5.825 4.875 16.85
    endloop
  endfacet
  facet normal -1 2.22045e-016 -1.77321e-016
    outer loop
      vertex 5.825 4.875 16.85
      vertex 5.825 8.175 4.84612e-015
      vertex 5.825 4.875 4.84612e-015
    endloop
  endfacet
  facet normal 2.22045e-016 0 -1
    outer loop
      vertex 7.325 11.175 5.17919e-015
      vertex 7.325 4.375 5.17919e-015
      vertex 7.325 4.875 5.17919e-015
    endloop
  endfacet
  facet normal 2.22045e-016 0 -1
    outer loop
      vertex 7.325 11.175 5.17919e-015
      vertex 7.325 4.875 5.17919e-015
      vertex 5.825 4.875 4.84612e-015
    endloop
  endfacet
  facet normal 2.22045e-016 0 -1
    outer loop
      vertex 7.325 11.175 5.17919e-015
      vertex 5.825 4.875 4.84612e-015
      vertex 5.825 8.175 4.84612e-015
    endloop
  endfacet
  facet normal 2.22045e-016 0 -1
    outer loop
      vertex 7.325 11.175 5.17919e-015
      vertex 5.825 8.175 4.84612e-015
      vertex 4.325 8.175 4.51306e-015
    endloop
  endfacet
  facet normal 2.22045e-016 0 -1
    outer loop
      vertex 7.325 11.175 5.17919e-015
      vertex 4.325 8.175 4.51306e-015
      vertex 4.325 9.175 4.51306e-015
    endloop
  endfacet
  facet normal 2.22045e-016 0 -1
    outer loop
      vertex 7.325 11.175 5.17919e-015
      vertex 4.325 9.175 4.51306e-015
      vertex 6.325 11.175 4.95715e-015
    endloop
  endfacet
  facet normal 2.22045e-016 0 -1
    outer loop
      vertex -7.325 4.375 1.4988e-016
      vertex 7.325 2.925 3.40283e-015
      vertex -7.325 2.925 1.4988e-016
    endloop
  endfacet
  facet normal 2.22045e-016 0 -1
    outer loop
      vertex -5.825 4.375 4.82947e-016
      vertex 7.325 2.925 3.40283e-015
      vertex -7.325 4.375 1.4988e-016
    endloop
  endfacet
  facet normal 2.22045e-016 0 -1
    outer loop
      vertex -7.325 4.875 1.4988e-016
      vertex -7.325 4.375 1.4988e-016
      vertex -7.325 2.925 1.4988e-016
    endloop
  endfacet
  facet normal 2.22045e-016 0 -1
    outer loop
      vertex -5.825 4.875 4.82947e-016
      vertex 7.325 2.925 3.40283e-015
      vertex -5.825 4.375 4.82947e-016
    endloop
  endfacet
  facet normal 2.22045e-016 0 -1
    outer loop
      vertex 7.325 4.875 3.40283e-015
      vertex 7.325 2.925 3.40283e-015
      vertex -5.825 4.875 4.82947e-016
    endloop
  endfacet
  facet normal 2.22045e-016 0 -1
    outer loop
      vertex 7.325 2.875 3.40283e-015
      vertex 7.325 2.925 3.40283e-015
      vertex 7.325 4.875 3.40283e-015
    endloop
  endfacet
  facet normal 0 -1 0
    outer loop
      vertex -7.325 2.875 15.35
      vertex -7.325 2.875 15.5871
      vertex -7.325 2.875 1.5
    endloop
  endfacet
  facet normal 0 -1 0
    outer loop
      vertex 7.325 2.875 1.5
      vertex -7.325 2.875 15.35
      vertex -7.325 2.875 1.5
    endloop
  endfacet
  facet normal 0 -1 0
    outer loop
      vertex 7.325 2.875 15.35
      vertex 7.325 2.875 1.5
      vertex 7.325 2.875 3.40283e-015
    endloop
  endfacet
  facet normal 0 -1 0
    outer loop
      vertex 7.325 2.875 15.35
      vertex -7.325 2.875 15.35
      vertex 7.325 2.875 1.5
    endloop
  endfacet
  facet normal -1 0 -1.77321e-016
    outer loop
      vertex -7.325 -2.875 15.35
      vertex -7.325 -2.875 1.5
      vertex -7.325 -2.925 15.35
    endloop
  endfacet
  facet normal -1 0 -1.77321e-016
    outer loop
      vertex -7.325 -2.925 13.85
      vertex -7.325 -2.875 1.5
      vertex -7.325 -3.875 1.5
    endloop
  endfacet
  facet normal -1 0 -1.77321e-016
    outer loop
      vertex -7.325 -2.925 15.35
      vertex -7.325 -2.875 1.5
      vertex -7.325 -2.925 13.85
    endloop
  endfacet
  facet normal -1 0 -1.77321e-016
    outer loop
      vertex -7.325 -2.925 13.85
      vertex -7.325 -3.875 1.5
      vertex -7.325 -3.875 13.85
    endloop
  endfacet
  facet normal -1 -2.22045e-016 -1.77321e-016
    outer loop
      vertex -7.325 -3.925 3
      vertex -7.325 -3.875 3
      vertex -7.325 -5.925 1
    endloop
  endfacet
  facet normal -1 -2.22045e-016 -1.77321e-016
    outer loop
      vertex -7.325 -5.925 1
      vertex -7.325 -3.875 3
      vertex -7.325 -3.875 1.5
    endloop
  endfacet
  facet normal -1 -2.22045e-016 -1.77321e-016
    outer loop
      vertex -7.325 -5.925 1
      vertex -7.325 -3.875 1.5
      vertex -7.325 -2.875 1.5
    endloop
  endfacet
  facet normal -1 -2.22045e-016 -1.77321e-016
    outer loop
      vertex -7.325 -2.875 1.5
      vertex -7.325 2.925 1.5
      vertex -7.325 -5.925 1
    endloop
  endfacet
  facet normal -1 -2.22045e-016 -1.77321e-016
    outer loop
      vertex -7.325 -5.925 1
      vertex -7.325 2.925 1.5
      vertex -7.325 2.925 -7.38298e-016
    endloop
  endfacet
  facet normal -1 -2.22045e-016 -1.77321e-016
    outer loop
      vertex -7.325 -5.925 1
      vertex -7.325 2.925 -7.38298e-016
      vertex -7.325 -5.925 1.2268e-015
    endloop
  endfacet
  facet normal -2.22045e-016 2.22045e-016 1
    outer loop
      vertex 7.325 2.875 1.5
      vertex 7.325 -2.875 1.5
      vertex 7.325 -2.925 1.5
    endloop
  endfacet
  facet normal -2.22045e-016 2.22045e-016 1
    outer loop
      vertex -7.325 -2.875 1.5
      vertex -7.325 2.875 1.5
      vertex -7.325 2.925 1.5
    endloop
  endfacet
  facet normal -2.22045e-016 2.22045e-016 1
    outer loop
      vertex -7.325 -2.875 1.5
      vertex 7.325 2.875 1.5
      vertex -7.325 2.875 1.5
    endloop
  endfacet
  facet normal -2.22045e-016 2.22045e-016 1
    outer loop
      vertex -7.325 -2.875 1.5
      vertex 7.325 -2.875 1.5
      vertex 7.325 2.875 1.5
    endloop
  endfacet
  facet normal 1 0 1.77321e-016
    outer loop
      vertex 7.325 -2.875 15.35
      vertex 7.325 -3.875 15.35
      vertex 7.325 -3.875 3
    endloop
  endfacet
  facet normal 1 0 1.77321e-016
    outer loop
      vertex 7.325 -2.925 1.5
      vertex 7.325 -2.875 15.35
      vertex 7.325 -2.925 3
    endloop
  endfacet
  facet normal 1 0 1.77321e-016
    outer loop
      vertex 7.325 -2.925 3
      vertex 7.325 -2.875 15.35
      vertex 7.325 -3.875 3
    endloop
  endfacet
  facet normal 1 0 1.77321e-016
    outer loop
      vertex 7.325 -2.875 1.5
      vertex 7.325 -2.875 15.35
      vertex 7.325 -2.925 1.5
    endloop
  endfacet
  facet normal -2.22045e-016 2.22045e-016 1
    outer loop
      vertex -7.325 -3.875 3
      vertex -7.325 -3.925 3
      vertex 7.325 -3.925 3
    endloop
  endfacet
  facet normal -2.22045e-016 2.22045e-016 1
    outer loop
      vertex 7.325 -3.875 3
      vertex -7.325 -3.875 3
      vertex 7.325 -3.925 3
    endloop
  endfacet
  facet normal -2.22045e-016 2.22045e-016 1
    outer loop
      vertex 7.325 -2.925 3
      vertex 7.325 -3.875 3
      vertex 7.325 -3.925 3
    endloop
  endfacet
  facet normal -2.22045e-016 1 -2.22045e-016
    outer loop
      vertex -7.325 2.925 -7.38298e-016
      vertex -7.325 2.925 1.5
      vertex -7.325 2.925 1.4988e-016
    endloop
  endfacet
  facet normal -2.22045e-016 1 -2.22045e-016
    outer loop
      vertex -7.325 2.925 -7.38298e-016
      vertex -7.325 2.925 1.4988e-016
      vertex 7.325 2.925 3.40283e-015
    endloop
  endfacet
  facet normal -2.22045e-016 1 -2.22045e-016
    outer loop
      vertex -7.325 2.925 -7.38298e-016
      vertex 7.325 2.925 3.40283e-015
      vertex 7.325 2.925 2.51466e-015
    endloop
  endfacet
  facet normal -1 -2.22045e-016 -2.99782e-016
    outer loop
      vertex -7.325 4.375 16.85
      vertex -7.325 11.175 16.85
      vertex -7.325 4.375 1.17223
    endloop
  endfacet
  facet normal -1 -2.22045e-016 -2.99782e-016
    outer loop
      vertex -7.325 4.375 1.17223
      vertex -7.325 11.175 16.85
      vertex -7.325 11.175 -2.5235e-015
    endloop
  endfacet
  facet normal -1 -2.22045e-016 -2.99782e-016
    outer loop
      vertex -7.325 4.375 1.4988e-016
      vertex -7.325 11.175 -2.5235e-015
      vertex -7.325 4.375 -2.5235e-015
    endloop
  endfacet
  facet normal -1 -2.22045e-016 -2.99782e-016
    outer loop
      vertex -7.325 4.875 1.4988e-016
      vertex -7.325 11.175 -2.5235e-015
      vertex -7.325 4.375 1.4988e-016
    endloop
  endfacet
  facet normal -1 -2.22045e-016 -2.99782e-016
    outer loop
      vertex -7.325 4.875 0.265637
      vertex -7.325 11.175 -2.5235e-015
      vertex -7.325 4.875 1.4988e-016
    endloop
  endfacet
  facet normal -1 -2.22045e-016 -2.99782e-016
    outer loop
      vertex -7.325 4.375 1.17223
      vertex -7.325 11.175 -2.5235e-015
      vertex -7.325 4.875 0.265637
    endloop
  endfacet
  facet normal -3.44505e-016 0 1
    outer loop
      vertex -5.825 8.175 16.85
      vertex -4.325 8.175 16.85
      vertex -4.325 9.175 16.85
    endloop
  endfacet
  facet normal -3.44505e-016 0 1
    outer loop
      vertex -7.325 11.175 16.85
      vertex -5.825 8.175 16.85
      vertex -6.325 11.175 16.85
    endloop
  endfacet
  facet normal -3.44505e-016 0 1
    outer loop
      vertex -6.325 11.175 16.85
      vertex -5.825 8.175 16.85
      vertex -4.325 9.175 16.85
    endloop
  endfacet
  facet normal -3.44505e-016 0 1
    outer loop
      vertex -7.325 4.875 16.85
      vertex -5.825 4.875 16.85
      vertex -5.825 8.175 16.85
    endloop
  endfacet
  facet normal -3.44505e-016 0 1
    outer loop
      vertex -7.325 4.875 16.85
      vertex -5.825 8.175 16.85
      vertex -7.325 11.175 16.85
    endloop
  endfacet
  facet normal -3.44505e-016 0 1
    outer loop
      vertex -7.325 4.375 16.85
      vertex -7.325 4.875 16.85
      vertex -7.325 11.175 16.85
    endloop
  endfacet
  facet normal 1 2.22045e-016 2.99782e-016
    outer loop
      vertex -5.825 8.175 16.85
      vertex -5.825 4.875 16.85
      vertex -5.825 4.875 4.82947e-016
    endloop
  endfacet
  facet normal 1 2.22045e-016 2.99782e-016
    outer loop
      vertex -5.825 8.175 -2.00674e-015
      vertex -5.825 8.175 16.85
      vertex -5.825 4.875 4.82947e-016
    endloop
  endfacet
  facet normal 1 2.22045e-016 2.99782e-016
    outer loop
      vertex -5.825 4.375 4.82947e-016
      vertex -5.825 4.375 -2.00674e-015
      vertex -5.825 4.875 4.82947e-016
    endloop
  endfacet
  facet normal 1 2.22045e-016 2.99782e-016
    outer loop
      vertex -5.825 4.375 -2.00674e-015
      vertex -5.825 8.175 -2.00674e-015
      vertex -5.825 4.875 4.82947e-016
    endloop
  endfacet
  facet normal -2.22045e-016 -1 -3.93732e-032
    outer loop
      vertex 5.825 8.175 4.84612e-015
      vertex 5.825 8.175 16.85
      vertex 4.325 8.175 16.85
    endloop
  endfacet
  facet normal -2.22045e-016 -1 -3.93732e-032
    outer loop
      vertex 4.325 8.175 4.51306e-015
      vertex 5.825 8.175 4.84612e-015
      vertex 4.325 8.175 16.85
    endloop
  endfacet
  facet normal -2.22045e-016 0 1
    outer loop
      vertex 5.825 4.375 16.85
      vertex 7.325 4.375 16.85
      vertex 7.325 11.175 16.85
    endloop
  endfacet
  facet normal -2.22045e-016 0 1
    outer loop
      vertex 5.825 8.175 16.85
      vertex 5.825 4.375 16.85
      vertex 6.325 11.175 16.85
    endloop
  endfacet
  facet normal -2.22045e-016 0 1
    outer loop
      vertex 6.325 11.175 16.85
      vertex 5.825 4.375 16.85
      vertex 7.325 11.175 16.85
    endloop
  endfacet
  facet normal -2.22045e-016 0 1
    outer loop
      vertex 4.325 9.175 16.85
      vertex 5.825 8.175 16.85
      vertex 6.325 11.175 16.85
    endloop
  endfacet
  facet normal -2.22045e-016 0 1
    outer loop
      vertex 4.325 8.175 16.85
      vertex 5.825 8.175 16.85
      vertex 4.325 9.175 16.85
    endloop
  endfacet
  facet normal 1 -2.22045e-016 1.77321e-016
    outer loop
      vertex 7.325 11.175 16.85
      vertex 7.325 4.375 16.85
      vertex 7.325 4.375 5.17919e-015
    endloop
  endfacet
  facet normal 1 -2.22045e-016 1.77321e-016
    outer loop
      vertex 7.325 11.175 5.17919e-015
      vertex 7.325 11.175 16.85
      vertex 7.325 4.375 5.17919e-015
    endloop
  endfacet
  facet normal 2.22045e-016 1 3.93732e-032
    outer loop
      vertex 7.325 11.175 16.85
      vertex 7.325 11.175 5.17919e-015
      vertex 6.325 11.175 16.85
    endloop
  endfacet
  facet normal 2.22045e-016 1 3.93732e-032
    outer loop
      vertex 6.325 11.175 16.85
      vertex 7.325 11.175 5.17919e-015
      vertex 6.325 11.175 4.95715e-015
    endloop
  endfacet
  facet normal -0.707107 0.707107 -1.25385e-016
    outer loop
      vertex 6.325 11.175 4.95715e-015
      vertex 4.325 9.175 4.51306e-015
      vertex 6.325 11.175 16.85
    endloop
  endfacet
  facet normal -0.707107 0.707107 -1.25385e-016
    outer loop
      vertex 6.325 11.175 16.85
      vertex 4.325 9.175 4.51306e-015
      vertex 4.325 9.175 16.85
    endloop
  endfacet
  facet normal -1 2.22045e-016 -1.77321e-016
    outer loop
      vertex 4.325 8.175 16.85
      vertex 4.325 9.175 16.85
      vertex 4.325 8.175 4.51306e-015
    endloop
  endfacet
  facet normal -1 2.22045e-016 -1.77321e-016
    outer loop
      vertex 4.325 8.175 4.51306e-015
      vertex 4.325 9.175 16.85
      vertex 4.325 9.175 4.51306e-015
    endloop
  endfacet
  facet normal 2.22045e-016 -1 6.6565e-032
    outer loop
      vertex -5.825 4.375 4.82947e-016
      vertex -7.325 4.375 1.4988e-016
      vertex -7.325 4.375 -2.5235e-015
    endloop
  endfacet
  facet normal 2.22045e-016 -1 6.6565e-032
    outer loop
      vertex -5.825 4.375 -2.00674e-015
      vertex -5.825 4.375 4.82947e-016
      vertex -7.325 4.375 -2.5235e-015
    endloop
  endfacet
  facet normal 1 2.22045e-016 1.77321e-016
    outer loop
      vertex 7.325 -2.925 3
      vertex 7.325 -3.925 3
      vertex 7.325 -5.925 1
    endloop
  endfacet
  facet normal 1 2.22045e-016 1.77321e-016
    outer loop
      vertex 7.325 -2.925 1.5
      vertex 7.325 -2.925 3
      vertex 7.325 -5.925 4.47975e-015
    endloop
  endfacet
  facet normal 1 2.22045e-016 1.77321e-016
    outer loop
      vertex 7.325 -5.925 4.47975e-015
      vertex 7.325 -2.925 3
      vertex 7.325 -5.925 1
    endloop
  endfacet
  facet normal 1 2.22045e-016 1.77321e-016
    outer loop
      vertex 7.325 2.925 2.51466e-015
      vertex 7.325 2.875 3.40283e-015
      vertex 7.325 -5.925 4.47975e-015
    endloop
  endfacet
  facet normal 1 2.22045e-016 1.77321e-016
    outer loop
      vertex 7.325 2.875 3.40283e-015
      vertex 7.325 -2.925 1.5
      vertex 7.325 -5.925 4.47975e-015
    endloop
  endfacet
  facet normal 1 2.22045e-016 1.77321e-016
    outer loop
      vertex 7.325 2.875 1.5
      vertex 7.325 -2.925 1.5
      vertex 7.325 2.875 3.40283e-015
    endloop
  endfacet
  facet normal 1 2.22045e-016 1.77321e-016
    outer loop
      vertex 7.325 2.925 3.40283e-015
      vertex 7.325 2.875 3.40283e-015
      vertex 7.325 2.925 2.51466e-015
    endloop
  endfacet
  facet normal -4.50742e-032 -0.707107 0.707107
    outer loop
      vertex -7.325 -5.925 1
      vertex 7.325 -5.925 1
      vertex 7.325 -3.925 3
    endloop
  endfacet
  facet normal -4.50742e-032 -0.707107 0.707107
    outer loop
      vertex -7.325 -3.925 3
      vertex -7.325 -5.925 1
      vertex 7.325 -3.925 3
    endloop
  endfacet
  facet normal 2.22045e-016 -1 2.22045e-016
    outer loop
      vertex 7.325 -5.925 1
      vertex -7.325 -5.925 1
      vertex -7.325 -5.925 1.2268e-015
    endloop
  endfacet
  facet normal 2.22045e-016 -1 2.22045e-016
    outer loop
      vertex 7.325 -5.925 4.47975e-015
      vertex 7.325 -5.925 1
      vertex -7.325 -5.925 1.2268e-015
    endloop
  endfacet
  facet normal 2.22045e-016 -2.22045e-016 -1
    outer loop
      vertex -7.325 -5.925 1.2268e-015
      vertex -7.325 2.925 -7.38298e-016
      vertex 7.325 -5.925 4.47975e-015
    endloop
  endfacet
  facet normal 2.22045e-016 -2.22045e-016 -1
    outer loop
      vertex 7.325 -5.925 4.47975e-015
      vertex -7.325 2.925 -7.38298e-016
      vertex 7.325 2.925 2.51466e-015
    endloop
  endfacet
  facet normal 3.44505e-016 0 -1
    outer loop
      vertex -4.325 8.175 -1.48999e-015
      vertex -5.825 8.175 -2.00674e-015
      vertex -4.325 9.175 -1.48999e-015
    endloop
  endfacet
  facet normal 3.44505e-016 0 -1
    outer loop
      vertex -7.325 4.375 -2.5235e-015
      vertex -5.825 8.175 -2.00674e-015
      vertex -5.825 4.375 -2.00674e-015
    endloop
  endfacet
  facet normal 3.44505e-016 0 -1
    outer loop
      vertex -7.325 11.175 -2.5235e-015
      vertex -5.825 8.175 -2.00674e-015
      vertex -7.325 4.375 -2.5235e-015
    endloop
  endfacet
  facet normal 3.44505e-016 0 -1
    outer loop
      vertex -4.325 9.175 -1.48999e-015
      vertex -5.825 8.175 -2.00674e-015
      vertex -7.325 11.175 -2.5235e-015
    endloop
  endfacet
  facet normal 3.44505e-016 0 -1
    outer loop
      vertex -4.325 9.175 -1.48999e-015
      vertex -7.325 11.175 -2.5235e-015
      vertex -6.325 11.175 -2.179e-015
    endloop
  endfacet
  facet normal -2.22045e-016 1 -6.6565e-032
    outer loop
      vertex -6.325 11.175 16.85
      vertex -6.325 11.175 -2.179e-015
      vertex -7.325 11.175 16.85
    endloop
  endfacet
  facet normal -2.22045e-016 1 -6.6565e-032
    outer loop
      vertex -7.325 11.175 16.85
      vertex -6.325 11.175 -2.179e-015
      vertex -7.325 11.175 -2.5235e-015
    endloop
  endfacet
  facet normal 2.22045e-016 -1 6.6565e-032
    outer loop
      vertex -4.325 8.175 -1.48999e-015
      vertex -4.325 8.175 16.85
      vertex -5.825 8.175 16.85
    endloop
  endfacet
  facet normal 2.22045e-016 -1 6.6565e-032
    outer loop
      vertex -5.825 8.175 -2.00674e-015
      vertex -4.325 8.175 -1.48999e-015
      vertex -5.825 8.175 16.85
    endloop
  endfacet
  facet normal 0.707107 0.707107 2.11978e-016
    outer loop
      vertex -6.325 11.175 -2.179e-015
      vertex -6.325 11.175 16.85
      vertex -4.325 9.175 -1.48999e-015
    endloop
  endfacet
  facet normal 0.707107 0.707107 2.11978e-016
    outer loop
      vertex -4.325 9.175 -1.48999e-015
      vertex -6.325 11.175 16.85
      vertex -4.325 9.175 16.85
    endloop
  endfacet
  facet normal 1 2.22045e-016 2.99782e-016
    outer loop
      vertex -4.325 9.175 16.85
      vertex -4.325 8.175 16.85
      vertex -4.325 8.175 -1.48999e-015
    endloop
  endfacet
  facet normal 1 2.22045e-016 2.99782e-016
    outer loop
      vertex -4.325 9.175 -1.48999e-015
      vertex -4.325 9.175 16.85
      vertex -4.325 8.175 -1.48999e-015
    endloop
  endfacet
endsolid OpenSCAD_Model
